<?xml version="1.0" encoding="UTF-8"?>
<!DOCTYPE svg PUBLIC "-//W3C//DTD SVG 1.1//EN" "http://www.w3.org/Graphics/SVG/1.1/DTD/svg11.dtd">
<!-- Creator: CorelDRAW -->
<svg xmlns="http://www.w3.org/2000/svg" xml:space="preserve" width="50mm" height="50mm" version="1.1" style="shape-rendering:geometricPrecision; text-rendering:geometricPrecision; image-rendering:optimizeQuality; fill-rule:evenodd; clip-rule:evenodd"
viewBox="0 0 5000 5000"
 xmlns:xlink="http://www.w3.org/1999/xlink"
 xmlns:xodm="http://www.corel.com/coreldraw/odm/2003">
 <defs>
  <style type="text/css">
   <![CDATA[
    .fil1 {fill:#1CB78C}
    .fil0 {fill:#333333}
   ]]>
  </style>
 </defs>
 <g id="Camada_x0020_1">
  <metadata id="CorelCorpID_0Corel-Layer"/>
  <path class="fil0" d="M2495.28 4.72c690.32,0 1315.31,279.84 1767.73,732.27 452.43,452.42 732.27,1077.41 732.27,1767.73 0,690.28 -279.84,1315.31 -732.27,1767.73 -452.42,452.43 -1077.41,732.27 -1767.73,732.27 -690.32,0 -1315.31,-279.84 -1767.73,-732.27 -452.43,-452.42 -732.27,-1077.45 -732.27,-1767.73 0,-690.32 279.84,-1315.31 732.27,-1767.73 452.42,-452.43 1077.41,-732.27 1767.73,-732.27z"/>
  <path class="fil1" d="M2495.28 4.72c690.32,0 1315.31,279.84 1767.73,732.27 452.43,452.42 732.27,1077.41 732.27,1767.73 0,690.28 -279.84,1315.31 -732.27,1767.73 -452.42,452.43 -1077.41,732.27 -1767.73,732.27 -690.32,0 -1315.31,-279.84 -1767.73,-732.27 -452.43,-452.42 -732.27,-1077.45 -732.27,-1767.73 0,-690.32 279.84,-1315.31 732.27,-1767.73 452.42,-452.43 1077.41,-732.27 1767.73,-732.27zm0 293.81c1218.44,0 2206.19,987.75 2206.19,2206.19 0,1218.44 -987.75,2206.19 -2206.19,2206.19 -1218.44,0 -2206.19,-987.75 -2206.19,-2206.19 0,-1218.44 987.75,-2206.19 2206.19,-2206.19z"/>
  <g id="_1876179955408">
   <path class="fil1" d="M2065.42 1790.84c0,-216.85 127.66,-387.54 329.61,-432.58 68.45,-15.26 126.56,-15.79 195.16,-0.95 207.62,44.94 334.03,216.93 334.03,438.89l0 343.52 -858.8 0 0 -348.88zm-214.7 -64.42l0 413.3c-168.42,0 -296.95,-11.86 -433.51,124.7 -58.05,58.05 -124.7,169.32 -124.7,283.23l0 923.21c0,209.23 198.69,407.92 407.92,407.92l1588.78 0c113.9,0 225.18,-66.65 283.22,-124.7 122.61,-122.6 201.89,-412.04 11.99,-412.04 -111.77,0 -99.49,122.23 -115.54,174.3 -7.29,23.69 -3.48,12.95 -12.83,30.11 -49.02,89.86 -124.22,117.63 -220.52,117.63l-1481.42 0c-39.93,0 -77.98,-5.77 -107.38,-16.06 -27.5,-9.64 -56.45,-29.12 -75.39,-48.07 -18.95,-18.95 -38.43,-47.89 -48.07,-75.39 -10.29,-29.4 -16.07,-67.46 -16.07,-107.38l0 -815.86c0,-103.64 39.97,-195.96 139.53,-230.83 29.4,-10.3 67.45,-16.07 107.38,-16.07l1481.42 0c87.03,0 149.09,24.11 190.29,72.72 50.21,59.25 56.64,106.97 56.62,211.76 -0.02,89.46 0,178.91 0,268.37 -0.01,53.47 -5.31,83.56 16.08,118.1 52.79,85.26 198.61,52.25 198.61,-53.69l0 -424.03c0,-209.23 -198.69,-407.93 -407.92,-407.93l-150.29 0 0 -402.56c0,-159.76 -82.28,-315.63 -186.52,-420 -103.15,-103.28 -272.9,-186.52 -420.01,-186.52 -120.05,0 -205.3,5.87 -314.95,60.76 -137.76,68.97 -234.43,158.08 -304.1,297.06 -28.42,56.7 -62.62,156.09 -62.62,237.96z"/>
   <path class="fil1" d="M2387.47 2987.78c0,150.92 214.7,150.92 214.7,0 0,-135.39 -214.7,-135.39 -214.7,0z"/>
  </g>
 </g>
</svg>
