<?xml version="1.0" encoding="UTF-8"?>
<!DOCTYPE svg PUBLIC "-//W3C//DTD SVG 1.1//EN" "http://www.w3.org/Graphics/SVG/1.1/DTD/svg11.dtd">
<!-- Creator: CorelDRAW -->
<svg xmlns="http://www.w3.org/2000/svg" xml:space="preserve" width="24.42mm" height="24.42mm" version="1.1" style="shape-rendering:geometricPrecision; text-rendering:geometricPrecision; image-rendering:optimizeQuality; fill-rule:evenodd; clip-rule:evenodd"
viewBox="0 0 2442 2442"
 xmlns:xlink="http://www.w3.org/1999/xlink"
 xmlns:xodm="http://www.corel.com/coreldraw/odm/2003">
 <defs>
  <style type="text/css">
   <![CDATA[
    .fil0 {fill:#F7F7F7}
   ]]>
  </style>
 </defs>
 <g id="Camada_x0020_1">
  <metadata id="CorelCorpID_0Corel-Layer"/>
  <g id="_2595408405072">
   <path class="fil0" d="M420.35 614.72c0,-36.57 0.92,-41.82 21.67,-68.95 26.24,-34.29 85.33,-97.98 130.95,-97.98 115.86,0 93.51,124 271.85,124 100.35,0 175.83,-70.89 205.26,-142.89 32.94,-80.58 -28.82,-224.34 128.59,-224.34 62.16,0 142.55,-7.72 164.84,64.08 15.73,50.67 -1.57,103.09 19.58,156.88 58.95,150 243.74,189.53 353.17,97.25 27.93,-23.56 92.82,-119.98 179.97,-53.31 34.29,26.24 97.98,85.33 97.98,130.95 0,68.35 -33.07,78.35 -72.74,122.8 -93.15,104.4 -58.82,292.81 91.63,354.31 80.59,32.94 224.34,-28.82 224.34,128.59 0,62.16 7.72,142.55 -64.08,164.84 -50.66,15.73 -103.08,-1.57 -156.88,19.58 -149.99,58.95 -189.52,243.74 -97.24,353.17 23.55,27.93 119.97,92.82 53.3,179.97 -26.23,34.29 -85.33,97.98 -130.95,97.98 -115.86,0 -93.51,-124 -271.84,-124 -100.35,0 -175.84,70.9 -205.27,142.89 -32.93,80.59 28.82,224.34 -128.58,224.34 -62.17,0 -142.56,7.72 -164.85,-64.08 -17.01,-54.8 17.06,-177.08 -92.61,-255.54 -86.46,-61.86 -203.87,-67 -282.67,3.65 -32.56,29.19 -94.79,114.3 -177.44,51.07 -34.29,-26.23 -97.98,-85.33 -97.98,-130.95 0,-115.85 124,-93.51 124,-271.84 0,-100.35 -70.89,-175.83 -142.89,-205.27 -55.62,-22.73 -101.84,-5.12 -156.51,-19.95 -75.62,-20.51 -67.83,-101.28 -67.83,-165.86 0,-156.6 143.75,-96.85 220.96,-127.2 150,-58.95 189.53,-243.73 97.25,-353.17 -26.59,-31.52 -74.98,-60.12 -74.98,-111.02zm724.93 -600.93l117.33 0c39.72,2.06 78.59,8.34 114.9,25.32 16.29,7.62 27.19,15.06 41.62,25.14 10.68,7.46 9.42,7.37 18.59,14.79 23.07,18.68 13.75,6.61 33.97,32.81 129.09,167.3 26.44,248.69 96.92,265.52 29.7,7.09 52.63,-34.06 74.06,-52.19 92.27,-78.11 232.85,-99.76 336.43,-33.97 41.14,26.14 61.59,48.06 95,81.47 66.02,66.02 115.65,126.95 115.65,237.27 0,179.71 -141.12,215.6 -124.11,266.84 12.14,36.58 59.98,20.89 104.85,24.27 51.88,3.91 105.19,25.85 143.98,56.33 11.03,8.67 27.47,20.45 36.13,30.64 37.49,44.12 77.61,105.4 77.61,184.69l0 117.35c-2.06,39.72 -8.34,78.58 -25.31,114.88 -11.63,24.86 -24.08,40.61 -39.94,60.21 -7.36,9.1 -6.69,10.23 -14.57,18.82 -8.21,8.94 -9.01,8.03 -18.24,15.15 -49.23,37.98 -91.34,64.11 -159.66,69.25 -45.75,3.45 -96.09,-13.24 -105.86,27.68 -7.09,29.69 34.06,52.62 52.2,74.05 77.57,91.65 99.27,228.24 35.82,333.52 -31.72,52.64 -123.82,144.74 -176.46,176.46 -107.16,64.58 -248.89,39.46 -336.07,-38.04 -20.7,-18.4 -43.07,-59.54 -74.91,-48.97 -36.57,12.14 -20.89,59.98 -24.27,104.85 -10.27,136.37 -133.63,257.72 -271.66,257.72l-106.05 0c-75.25,-2.36 -135.49,-15.87 -205.2,-79.82l-56.13 -77.41c-57.59,-112.21 1.11,-192.72 -55.95,-206.35 -29.7,-7.09 -52.63,34.06 -74.06,52.2 -73.51,62.22 -173,90.84 -273.4,61.55 -87.88,-25.63 -196.44,-135.58 -236.58,-202.19 -23.31,-38.68 -37.1,-92.99 -37.1,-139.37 0,-189.08 141.61,-218.92 124.11,-271.61 -17.14,-51.64 -99.02,4.53 -208.47,-54.18 -13.54,-7.26 -29.07,-17.55 -40.35,-26.42 -93.96,-73.84 -111.17,-146.01 -113.75,-236.14l0 -103.19c0,-140.35 127.58,-265.45 262.25,-271.9 45.29,-2.17 95.83,12.62 102.02,-30.81 6.05,-42.37 -125.81,-89.05 -125.81,-264.83 0,-107.85 54.16,-171 118.04,-234.89 71.98,-71.98 129.39,-118.04 239.66,-118.04 180.17,0 215.42,141.19 266.84,124.11 51.64,-17.14 -4.53,-99.01 54.19,-208.47 7.26,-13.54 17.54,-29.07 26.41,-40.35 48.62,-61.87 120.14,-113.75 215.33,-113.75z"/>
   <path class="fil0" d="M654.05 1210.88c0,110.24 17.56,216.69 74.35,302.41 24.79,37.42 54.19,81.57 86.47,113.84l70.79 57.99c25.36,19.18 54.67,36.51 83.08,50.45 115.95,56.88 270.33,69.25 397.77,30.38 120.96,-36.88 81.85,-192.61 -20.92,-192.61 -9.84,0 -52.79,10.97 -62.88,13.42 -19.67,4.78 -48.91,7.06 -67.38,9.32 -33.61,4.1 -108.52,-13.21 -132.14,-22.65 -72.85,-29.1 -132.88,-73.36 -174.27,-135.73 -96.17,-144.9 -80.14,-338.91 46.07,-460.04 0.71,-0.68 1.77,-1.61 2.49,-2.28 28.22,-26.24 39.94,-36.5 76.57,-56.97 188.33,-105.25 426.62,-16.76 506.47,178.61 15.54,38 24.84,80.78 28.69,129.01 3.47,43.43 -18.54,108.11 -18.54,142.23 0,100.77 209.85,179.7 209.85,-109.69 0,-110.24 -17.56,-216.69 -74.36,-302.42 -24.78,-37.42 -54.19,-81.56 -86.47,-113.84 -13,-13.01 -20.25,-16.7 -33.48,-28.51 -157.89,-141.02 -404.15,-172.77 -594.28,-81.51 -76.62,36.78 -130.47,81.81 -185.57,143.51 -29.65,33.19 -60.33,80.43 -79.93,120.38 -24.73,50.41 -52.38,139.77 -52.38,214.7z"/>
  </g>
 </g>
</svg>
