<?xml version="1.0" encoding="UTF-8"?>
<!DOCTYPE svg PUBLIC "-//W3C//DTD SVG 1.1//EN" "http://www.w3.org/Graphics/SVG/1.1/DTD/svg11.dtd">
<!-- Creator: CorelDRAW -->
<svg xmlns="http://www.w3.org/2000/svg" xml:space="preserve" width="24.42mm" height="24.42mm" version="1.1" style="shape-rendering:geometricPrecision; text-rendering:geometricPrecision; image-rendering:optimizeQuality; fill-rule:evenodd; clip-rule:evenodd"
viewBox="0 0 2442 2442"
 xmlns:xlink="http://www.w3.org/1999/xlink"
 xmlns:xodm="http://www.corel.com/coreldraw/odm/2003">
 <defs>
  <style type="text/css">
   <![CDATA[
    .fil0 {fill:#F7F7F7}
   ]]>
  </style>
 </defs>
 <g id="Camada_x0020_1">
  <metadata id="CorelCorpID_0Corel-Layer"/>
  <g id="_2595414806272">
   <path class="fil0" d="M1046.92 2069.56l0 -1669.68c0,-243.57 320.73,-243.53 320.73,0l0 1669.68c0,243.57 -320.73,243.53 -320.73,0zm-188.66 -1707.41l0 1745.14c0,174.93 159.94,334.88 334.88,334.88l28.29 0c174.94,0 334.88,-159.95 334.88,-334.88l0 -1745.14c0,-174.94 -159.94,-334.88 -334.88,-334.88l-28.29 0c-174.94,0 -334.88,159.94 -334.88,334.88z"/>
   <path class="fil0" d="M1716.68 937.57l0 1169.72c0,174.93 159.95,334.88 334.88,334.88l28.3 0c194.25,0 321.41,-178.36 334.87,-308.82l0 -43.31c-6.28,-53.47 -37.76,-91.23 -99.04,-91.23 -81.82,0 -87.67,77.9 -94.23,118.02 -30.65,187.65 -316.12,186 -316.12,-47.27l0 -1094.26c0,-59.4 16.82,-106.43 48.19,-135.76 77.09,-72.07 198.1,-55.15 248.86,32.1 26.68,45.87 23.68,94.31 23.68,164.98l-0.12 566.11c-1.02,154.99 188.78,129.73 188.78,18.75l0 -683.91c0,-127.66 -91.58,-252.1 -198.08,-301.87 -238.84,-111.61 -499.97,70.53 -499.97,301.87z"/>
   <path class="fil0" d="M188.5 2069.56l0 -806.54c0,-242.45 320.73,-242.32 320.73,0l0 806.54c0,243.57 -320.73,243.53 -320.73,0zm-188.67 -844.28l0 882.01c0,174.93 159.95,334.88 334.88,334.88l28.3 0c174.93,0 334.88,-159.95 334.88,-334.88l0 -882.01c0,-100.87 -51.03,-180.75 -102.58,-232.3 -16.45,-16.45 -24.1,-23.44 -42.88,-37.3 -102.27,-75.5 -235.19,-84.63 -351.23,-33.71 -108.53,47.62 -201.37,176.02 -201.37,303.31z"/>
  </g>
 </g>
</svg>
