<?xml version="1.0" encoding="UTF-8"?>
<!DOCTYPE svg PUBLIC "-//W3C//DTD SVG 1.1//EN" "http://www.w3.org/Graphics/SVG/1.1/DTD/svg11.dtd">
<!-- Creator: CorelDRAW -->
<svg xmlns="http://www.w3.org/2000/svg" xml:space="preserve" width="50mm" height="54.231mm" version="1.1" style="shape-rendering:geometricPrecision; text-rendering:geometricPrecision; image-rendering:optimizeQuality; fill-rule:evenodd; clip-rule:evenodd"
viewBox="0 0 5000 5423.1"
 xmlns:xlink="http://www.w3.org/1999/xlink"
 xmlns:xodm="http://www.corel.com/coreldraw/odm/2003">
 <defs>
  <style type="text/css">
   <![CDATA[
    .fil0 {fill:#F7F7F7}
   ]]>
  </style>
 </defs>
 <g id="Camada_x0020_1">
  <metadata id="CorelCorpID_0Corel-Layer"/>
  <g id="_2554583019744">
   <path class="fil0" d="M1912.5 682.63c0,-168.47 85.74,-254.21 254.21,-254.21l656.7 0c294.62,0 254.21,240.39 254.21,455.45l-1165.12 0 0 -201.24zm-423.67 -74.15l0 275.39 -1292.22 0c-240.6,0 -280.3,368.06 -38.4,419.71 205.06,43.78 272.55,-77.92 271.63,88.5l105.62 1345.47c10.9,228.69 35.47,457.28 52.43,678.42l109.29 1341.8c33.98,184.21 149.46,353.63 270.05,460.79 110.92,98.57 316.4,209.25 521.6,209.25l2012.46 0c116.77,0 236.4,-37.99 317.65,-74.25 94.09,-41.99 158.15,-95.95 234.87,-157.04 25.54,-20.34 25.18,-24.34 45.17,-50.15 113.55,-146.56 207.3,-295.98 207.3,-512.95 0,-58.24 -25.08,-103.77 -55.03,-135.63 -106.79,-113.58 -293.85,-76.93 -355.19,64.35 -27.7,63.8 -7.81,133.11 -76.69,241.07 -21.27,33.34 -41.1,60.04 -71.82,87.05 -103.99,91.42 -207.54,113.87 -362.77,113.87l-1790.03 0c-156.83,0 -299.15,-38.31 -393.75,-157.03 -105.09,-131.88 -83.78,-241.82 -105.65,-445.13l-62.07 -764.1c-2.31,-90.4 -17.03,-181.62 -21,-264.98l-158.97 -2065.34 3283.5 0 -85.36 1111.53c-3.06,39.88 -7.75,30.1 -9.88,74.85 -9.55,200.55 -37.31,395.82 -42.36,593.16 -4.4,172.25 -42.46,424.1 -42.46,603.64 0,168.81 246.18,265.72 373.72,119.52 43.99,-50.42 48.75,-91.41 57.79,-164.64 8.13,-65.8 11.62,-145.45 13.25,-209.18l95.52 -1249.66c2.59,-54.53 13.87,-150.52 19.51,-202.92l42.93 -634.95c6.11,-61.23 30.57,-42.28 181.22,-41.21 85.02,0.61 128.97,-5.9 177.26,-45.17 147.51,-119.95 71.78,-378.65 -124.44,-378.65l-1292.22 0 0 -275.39c0,-312.58 -291.16,-603.74 -603.73,-603.74l-804.99 0c-312.58,0 -603.74,291.16 -603.74,603.74z"/>
   <path class="fil0" d="M3130.58 4389.8c0,224.43 380.92,274.04 421.16,18.67 27.61,-175.16 14.22,-352.61 23.65,-527.13l31.4 -710.03c0.8,-64.6 11.49,-102.46 11.03,-179.63l42.35 -1069.8c0,-224.42 -380.92,-274.04 -421.16,-18.67 -27.61,175.17 -14.22,352.61 -23.65,527.13l-53.06 1059.09c-3.36,62.27 5.57,126.46 -2.84,187.82l-18.36 352.36c0.8,124.91 -10.52,226.46 -10.52,360.19z"/>
   <path class="fil0" d="M1329.95 1911.29c0,132.68 11.43,238.41 10.53,360.18 -0.55,74.47 10.29,105.59 11.07,168.99l31.41 710.03c3.36,62.28 -5.57,126.45 2.84,187.82 7.23,52.7 7.75,104.65 7.45,172.61l19.89 350.83c6.69,59.64 -2.87,128.47 2.1,188.55 20.34,245.74 -33.96,530.16 243.06,530.16 58.27,0 103.74,-25.09 135.62,-55.03 109.51,-102.83 53.74,-264.15 55.05,-485.18l-42.44 -879.06c-3.36,-62.27 5.57,-126.45 -2.84,-187.81 -12.66,-92.37 -13.3,-398.49 -27.33,-523.45 -6.7,-59.64 2.87,-128.46 -2.11,-188.55 -20.33,-245.74 33.96,-530.15 -243.05,-530.15 -58.27,0 -103.74,25.08 -135.63,55.02 -24.38,22.9 -65.62,84.51 -65.62,125.04z"/>
   <path class="fil0" d="M2283.22 1932.47l0 2446.74c0,267.16 423.68,267.16 423.68,0l0 -2446.74c0,-267.16 -423.68,-267.16 -423.68,0z"/>
  </g>
 </g>
</svg>
