<?xml version="1.0" encoding="UTF-8"?>
<!DOCTYPE svg PUBLIC "-//W3C//DTD SVG 1.1//EN" "http://www.w3.org/Graphics/SVG/1.1/DTD/svg11.dtd">
<!-- Creator: CorelDRAW -->
<svg xmlns="http://www.w3.org/2000/svg" xml:space="preserve" width="50mm" height="50mm" version="1.1" style="shape-rendering:geometricPrecision; text-rendering:geometricPrecision; image-rendering:optimizeQuality; fill-rule:evenodd; clip-rule:evenodd"
viewBox="0 0 5000 5000"
 xmlns:xlink="http://www.w3.org/1999/xlink"
 xmlns:xodm="http://www.corel.com/coreldraw/odm/2003">
 <defs>
  <style type="text/css">
   <![CDATA[
    .fil0 {fill:#F7F7F7}
   ]]>
  </style>
 </defs>
 <g id="Camada_x0020_1">
  <metadata id="CorelCorpID_0Corel-Layer"/>
  <path class="fil0" d="M2495.15 2270.34c-238.66,0 -500.31,-110.41 -661.93,-275.62 -167.57,-171.3 -275.71,-423.35 -275.71,-661.93 0,-29.86 7.44,-65.68 10.64,-106.65 15.5,-198.4 126.85,-417.28 264.96,-555.39 166.53,-166.53 427.55,-275.61 662.04,-275.61 29.86,0 65.68,7.45 106.65,10.64 141.71,11.09 313.76,77.94 426.45,159.52l128.94 105.45c24.25,24.24 30.69,38.35 53.41,63.78 137.03,153.43 222.19,396.96 222.19,598.26 0,29.86 -7.44,65.68 -10.64,106.65 -2.28,29.3 -11.04,76.42 -16.58,100.6 -54.5,237.9 -183.16,419.6 -377.32,560.24 -136.73,99.04 -350.11,170.06 -533.1,170.06zm2500.13 2108.37l0 2.12c-0.15,195.29 -44.85,323.02 -173.3,450.73 -54.76,54.45 -90.4,82.29 -165.05,118.15 -55.1,26.48 -140.86,54.99 -217.71,55.14l-3887.93 0c-148.28,-0.15 -288.27,-79.14 -382.97,-173.29 -238.67,-237.28 -193.64,-539.25 -83.99,-831.21 109.66,-292.02 283.49,-644.52 503.79,-873.23 67.19,-69.76 104.63,-116.67 175.55,-176.03 21.91,-18.34 32.68,-34.5 54.59,-52.84 86.11,-72.12 164.61,-136.87 258.71,-200.28 122.03,-82.24 311.23,-184.23 452.73,-240.68 53.83,-21.48 106.6,-46.48 164.63,-59.99 -21.3,-29.08 -129.92,-98.66 -201.01,-189.64 -60.27,-77.12 -108.12,-134.91 -157.03,-223.86 -135.7,-246.75 -169.33,-427.5 -169.33,-709.61 0,-175.75 67.63,-390.44 126.92,-507.87 153.6,-304.22 330.4,-481.1 634.8,-634.81 204.98,-103.49 382.35,-126.92 625.07,-126.92 236.35,0 542.39,117.47 711.55,245.53 155.06,117.37 199.14,162.68 316.75,318.06 124.81,164.9 241.3,474.5 241.3,706.01 0,396.63 -86.94,636.41 -330.58,939.03 -22.38,27.79 -68.93,74.02 -96.76,98.55 -26.55,23.39 -82.54,61.64 -100.03,85.53 194.92,45.41 549.4,248.51 714.46,369.58l167.13 135.61c28.62,27.58 48.98,51.8 77.81,78.46l117.24 117.14c13.03,13.94 21.18,19.54 33.8,34.56l72.9 83.36c103.63,130.66 247.21,294.45 103.77,429.34 -76.69,72.12 -199.21,80.83 -279.18,-0.02 -40.89,-41.32 -119.24,-178.76 -248.61,-308.04 -33.33,-33.29 -59.5,-59.45 -92.78,-92.79 -368.35,-368.94 -948.07,-583.52 -1467.37,-583.52 -580.4,0 -1124.06,240.19 -1521.08,637.24 -195.19,195.22 -321.8,385.59 -438.63,635.64 -55.25,118.25 -103.09,261.21 -134.24,402.96 -38.04,173.14 49.67,277.39 228.62,277.39l3730.66 0c79.79,0 149.17,-22.03 188.46,-65.46 20.65,-22.84 36.11,-55.69 43.91,-83.51 17.81,-63.68 2.02,-49.16 2.02,-104.95 0,-254.18 246.97,-280.75 353.41,-148.33 32.9,40.93 46.85,95.92 47,166.75z"/>
 </g>
</svg>
