<?xml version="1.0" encoding="UTF-8"?>
<!DOCTYPE svg PUBLIC "-//W3C//DTD SVG 1.1//EN" "http://www.w3.org/Graphics/SVG/1.1/DTD/svg11.dtd">
<!-- Creator: CorelDRAW -->
<svg xmlns="http://www.w3.org/2000/svg" xml:space="preserve" width="24.42mm" height="24.42mm" version="1.1" style="shape-rendering:geometricPrecision; text-rendering:geometricPrecision; image-rendering:optimizeQuality; fill-rule:evenodd; clip-rule:evenodd"
viewBox="0 0 2442 2442"
 xmlns:xlink="http://www.w3.org/1999/xlink"
 xmlns:xodm="http://www.corel.com/coreldraw/odm/2003">
 <defs>
  <style type="text/css">
   <![CDATA[
    .fil0 {fill:#F7F7F7}
   ]]>
  </style>
 </defs>
 <g id="Camada_x0020_1">
  <metadata id="CorelCorpID_0Corel-Layer"/>
  <path class="fil0" d="M176.49 344.21l0 1776.35c0,38.33 17.5,95.65 30.94,122.93 50.63,102.8 162.84,184.79 281.44,184.79 71.47,0 91.63,-4.03 158.56,-37.26 129.4,-64.27 57.26,-186.53 -18.69,-186.53 -49.1,0 -52.44,17.3 -91.44,29.81 -81.45,26.11 -174.31,-38.06 -174.31,-146.37l0 -1720.41c0,-99.7 106.25,-170.57 202.2,-122.94l147.47 90.3c100.75,66.65 239.69,144.89 345.93,213.56 132.26,85.5 306.46,188.25 444.7,273.3 75.16,46.23 438.35,265.13 491.64,305.63 15.5,11.78 27.3,24.94 37.13,42.12 30.42,53.16 20.87,116.84 -17.36,159.72 -25.45,28.54 -366.18,231.64 -408.83,257.88l-619.02 378.73c-147.1,87.55 -25.38,236.91 82.25,170.83l856.04 -524.01c82.94,-49.34 175.55,-99.54 236.43,-164.54 111.02,-118.55 105.47,-344.4 -44.8,-465.88l-1117.06 -691.94c-77.26,-46.22 -147.54,-92.78 -224.98,-138.68 -111.63,-66.17 -148.24,-110.44 -290.52,-110.44 -151.47,0 -307.72,146.75 -307.72,303.05z"/>
 </g>
</svg>
