<?xml version="1.0" encoding="UTF-8"?>
<!DOCTYPE svg PUBLIC "-//W3C//DTD SVG 1.1//EN" "http://www.w3.org/Graphics/SVG/1.1/DTD/svg11.dtd">
<!-- Creator: CorelDRAW -->
<svg xmlns="http://www.w3.org/2000/svg" xml:space="preserve" width="100mm" height="100mm" version="1.1" style="shape-rendering:geometricPrecision; text-rendering:geometricPrecision; image-rendering:optimizeQuality; fill-rule:evenodd; clip-rule:evenodd"
viewBox="0 0 10000 10000"
 xmlns:xlink="http://www.w3.org/1999/xlink"
 xmlns:xodm="http://www.corel.com/coreldraw/odm/2003">
 <defs>
  <style type="text/css">
   <![CDATA[
    .fil0 {fill:white}
   ]]>
  </style>
 </defs>
 <g id="Camada_x0020_1">
  <metadata id="CorelCorpID_0Corel-Layer"/>
  <g id="_2096665486464">
   <path class="fil0" d="M2588.22 6279.93l4804.68 0 0 3114.76 -4804.68 0 0 -3114.76zm-585.94 -266.39l0 2356.55 -839.85 0c-335.42,0 -605.46,-246.62 -605.46,-594.26l0 -2377.04 8867.18 0 0 2377.04c0,347.64 -270.04,594.26 -605.46,594.26l-839.85 0 0 -2356.55c0,-94.83 -37.64,-176.05 -77.07,-226.52 -33.75,-43.23 -124.11,-101.35 -196.37,-101.35l-5429.68 0c-143.24,0 -273.44,153.73 -273.44,327.87zm-1445.31 -1413.94c0,-185.24 101.54,-358.16 200.57,-445.3 127.74,-112.42 275.63,-148.96 502.55,-148.96l7460.94 0c395.98,0 703.12,197.51 703.12,594.26l0 204.92 -8867.18 0 0 -204.92zm2070.31 -3975.41l4726.56 0 0 2786.89 -4726.56 0 0 -2786.89zm-566.41 -286.88l0 3073.77 -917.96 0c-637.09,0 -1152.35,574.54 -1152.35,1106.56l0 3319.67c0,318.26 177.86,618.92 331.09,779.67 160.85,168.77 443.92,347.38 762.66,347.38l917.97 0c0,683.82 -104.19,1045.07 410.16,1045.07l5156.24 0c514.35,0 410.16,-361.25 410.16,-1045.07l917.97 0c568.84,0 1093.75,-554.83 1093.75,-1127.05l0 -3319.67c0,-153.72 -70.73,-336.68 -120.71,-447.13 -165.84,-366.47 -576.49,-659.43 -1031.64,-659.43l-917.96 0 0 -3073.77c0,-124 -52.86,-203.94 -121.43,-261.95 -64.56,-54.62 -195.65,-65.91 -308.26,-65.91l-5000 0c-215.47,0 -429.69,50.46 -429.69,327.86z"/>
   <path class="fil0" d="M3017.9 7181.57c0,198.91 119.3,327.87 253.91,327.87l3300.78 0c378.05,0 375.62,-594.26 -19.53,-594.26l-3242.19 0c-150.97,0 -292.97,118.87 -292.97,266.39z"/>
   <path class="fil0" d="M3017.9 8431.57c0,201.78 115.53,327.87 234.38,327.87l1621.09 0c274.14,0 384.48,-594.27 -97.65,-594.27l-1425.79 0c-180.06,0 -332.03,106.53 -332.03,266.4z"/>
   <path class="fil0" d="M8740.56 4702.07c394.16,0 358.66,-594.27 0,-594.27 -358.8,0 -387.71,594.27 0,594.27z"/>
  </g>
 </g>
</svg>
