<?xml version="1.0" encoding="UTF-8"?>
<!DOCTYPE svg PUBLIC "-//W3C//DTD SVG 1.1//EN" "http://www.w3.org/Graphics/SVG/1.1/DTD/svg11.dtd">
<!-- Creator: CorelDRAW -->
<svg xmlns="http://www.w3.org/2000/svg" xml:space="preserve" width="50mm" height="50mm" version="1.1" style="shape-rendering:geometricPrecision; text-rendering:geometricPrecision; image-rendering:optimizeQuality; fill-rule:evenodd; clip-rule:evenodd"
viewBox="0 0 5000 5000"
 xmlns:xlink="http://www.w3.org/1999/xlink"
 xmlns:xodm="http://www.corel.com/coreldraw/odm/2003">
 <defs>
  <style type="text/css">
   <![CDATA[
    .fil0 {fill:#F7F7F7}
   ]]>
  </style>
 </defs>
 <g id="Camada_x0020_1">
  <metadata id="CorelCorpID_0Corel-Layer"/>
  <g id="_1840818990944">
   <path class="fil0" d="M1538.39 1537.85c0,244.48 99.75,415.12 195.33,595.75 -50.12,33.56 -1228.21,1223.32 -1330.69,1325.79l-332.1 332.02c-38.93,38.32 -75.5,75.42 -75.64,148.55l0 879.66c0.15,99.71 85.83,185.3 185.56,185.3l878.98 0c99.82,0 185.56,-85.74 185.56,-185.56l0 -361.35 361.37 0c99.81,0 185.56,-85.75 185.56,-185.57l0 -361.35 361.36 0c172.5,0 242.37,-215.76 134.82,-330.15 -22.08,-23.48 -73.94,-60.51 -115.29,-60.51l-605.52 0c-66.8,0 -166.03,80.95 -166.03,185.56l0 361.36 -380.89 0c-66.8,0 -166.04,80.95 -166.04,185.56l0 361.35 -468.78 0 0 -566.45c0,-33.19 417.14,-431.78 446.81,-461.45 153.76,-153.77 300.37,-300.38 454.14,-454.15l683.66 -683.64c125.37,-125.38 202.65,-156.9 202.65,-305.2 0,-103.07 -206.26,-342.18 -234.14,-537.54 -34.86,-244.19 140.56,-360.18 265.88,-485.49l576.21 -576.22c190.36,-190.99 333.5,-167.11 550.07,-76.39 168.14,70.44 350.03,171.95 492.52,279.03 272.27,204.63 367.56,334.83 550.92,611.29 54.85,82.72 230.39,426.97 230.39,541.16 0,222.19 -191.06,360.53 -354.02,524.97l-151.39 141.58c-58.46,58.46 -393.06,402.62 -443.54,435.45 -333.58,216.97 -649.48,-174.19 -818.78,-174.19 -176.94,0 -314.42,247.56 -88.62,381.61 170.14,101.02 445.13,253.21 655.07,253.21 309.21,0 400.02,-75.62 597.21,-232.94l762.91 -760.66c265.09,-263.73 293.33,-618.25 130.89,-956.42 -171.38,-356.79 -271.55,-556.42 -565.64,-850.5 -38,-38.01 -77.02,-82.9 -118.83,-115.56 -286.47,-223.84 -412.74,-305.32 -728.13,-443.84 -136.47,-59.93 -226.41,-97.25 -409.4,-97.39l-1.38 0c-418.06,0.15 -578.15,302.1 -774.12,465.9l-614.54 625.8c-24.28,36.5 -54.36,80.92 -72.01,123.32 -40.2,96.62 -72.35,185.57 -72.35,318.3z"/>
   <path class="fil0" d="M3237.76 1342.53c0,101.43 10.36,172.31 89.93,251.88 205.95,205.95 535.12,31.34 535.12,-193.29l0 -58.59c0,-135.46 -148.55,-283.23 -283.23,-283.23l-58.6 0c-134.68,0 -283.22,147.77 -283.22,283.23z"/>
  </g>
 </g>
</svg>
