<?xml version="1.0" encoding="UTF-8"?>
<!DOCTYPE svg PUBLIC "-//W3C//DTD SVG 1.1//EN" "http://www.w3.org/Graphics/SVG/1.1/DTD/svg11.dtd">
<!-- Creator: CorelDRAW -->
<svg xmlns="http://www.w3.org/2000/svg" xml:space="preserve" width="53.3mm" height="22.35mm" version="1.1" style="shape-rendering:geometricPrecision; text-rendering:geometricPrecision; image-rendering:optimizeQuality; fill-rule:evenodd; clip-rule:evenodd"
viewBox="0 0 5330 2235"
 xmlns:xlink="http://www.w3.org/1999/xlink"
 xmlns:xodm="http://www.corel.com/coreldraw/odm/2003">
 <defs>
  <style type="text/css">
   <![CDATA[
    .fil0 {fill:#F7F7F7;fill-rule:nonzero}
   ]]>
  </style>
 </defs>
 <g id="Camada_x0020_1">
  <metadata id="CorelCorpID_0Corel-Layer"/>
  <g id="_2595523578848">
   <path class="fil0" d="M41.04 2138.96c-4.39,5.3 -7.87,8.7 -10.6,10.19 -2.65,1.49 -5.97,2.24 -9.86,2.24 -7.62,0 -13.75,-2.57 -18.31,-7.62 -4.64,-5.14 -6.96,-13.59 -6.96,-25.44l0 -33.55c0,-12.02 2.32,-20.55 6.96,-25.69 4.56,-5.05 10.69,-7.62 18.31,-7.62 5.88,0 10.77,1.58 14.75,4.64 3.98,3.07 6.96,8.12 9.11,15.33 2.07,7.21 4.31,12.09 6.55,14.66 4.72,5.06 13,10.11 24.94,15.25 11.93,5.22 25.02,7.79 39.27,7.79 22.12,0 40.26,-5.22 54.43,-15.58 9.03,-6.3 13.59,-14.09 13.59,-23.28 0,-6.22 -2.16,-12.02 -6.55,-17.4 -4.31,-5.47 -11.35,-9.94 -21.21,-13.51 -6.38,-2.4 -20.79,-5.71 -43.08,-9.94 -27.01,-5.05 -47.47,-11.1 -61.39,-18.23 -14,-7.12 -25.02,-17.15 -33.06,-30.15 -8.12,-12.93 -12.18,-26.93 -12.18,-42.01 0,-23.78 9.94,-44.66 29.74,-62.55 19.81,-17.9 45.57,-26.85 77.3,-26.85 12.68,0 24.53,1.41 35.38,4.31 10.86,2.82 20.72,7.21 29.58,13.09 6.55,-6.29 13.09,-9.44 19.64,-9.44 7.37,0 13.42,2.57 18.06,7.7 4.72,5.06 7.04,13.51 7.04,25.36l0 37.53c0,11.93 -2.32,20.54 -6.96,25.6 -4.56,5.14 -10.52,7.7 -17.81,7.7 -6.22,0 -11.52,-1.9 -16.08,-5.63 -3.56,-2.73 -6.21,-8.29 -8.03,-16.65 -1.74,-8.29 -4.06,-14.25 -6.8,-17.82 -4.64,-6.21 -11.68,-11.43 -21.04,-15.66 -9.28,-4.22 -20.13,-6.37 -32.31,-6.37 -17.9,0 -32.07,4.14 -42.42,12.51 -10.36,8.36 -15.58,17.06 -15.58,26.09 0,6.22 2.16,12.18 6.38,17.9 4.31,5.8 10.52,10.27 18.73,13.5 5.46,2.24 20.79,5.89 46.14,10.94 25.27,5.06 44.83,10.52 58.5,16.49 13.67,6.05 25.02,15.41 34.13,28.25 9.03,12.76 13.59,28.01 13.59,45.65 0,24.61 -8.62,44.25 -25.93,58.99 -22.95,19.47 -52.28,29.17 -87.83,29.17 -13.75,0 -27.17,-1.66 -40.18,-4.97 -13.01,-3.32 -25.68,-8.29 -37.95,-14.92zm395.79 -232.15l0 194.87 50.21 0c12.34,0 21.04,2.32 26.18,6.88 5.05,4.55 7.62,10.52 7.62,17.97 0,7.46 -2.57,13.43 -7.62,17.98 -5.14,4.56 -13.84,6.88 -26.18,6.88l-150.13 0c-12.35,0 -21.04,-2.32 -26.18,-6.96 -5.06,-4.64 -7.62,-10.69 -7.62,-18.14 0,-7.46 2.56,-13.43 7.62,-17.9 5.14,-4.47 13.83,-6.71 26.18,-6.71l50.21 0 0 -194.87 -50.21 0c-12.35,0 -21.04,-2.32 -26.18,-6.87 -5.06,-4.56 -7.62,-10.53 -7.62,-17.98 0,-7.46 2.56,-13.43 7.62,-17.98 5.14,-4.56 13.83,-6.88 26.18,-6.88l150.13 0c12.34,0 21.04,2.24 26.18,6.71 5.05,4.48 7.62,10.44 7.62,17.9 0,7.45 -2.57,13.5 -7.62,18.14 -5.14,4.64 -13.84,6.96 -26.18,6.96l-50.21 0zm200.91 232.15c-4.39,5.3 -7.87,8.7 -10.6,10.19 -2.65,1.49 -5.97,2.24 -9.86,2.24 -7.62,0 -13.75,-2.57 -18.31,-7.62 -4.64,-5.14 -6.96,-13.59 -6.96,-25.44l0 -33.55c0,-12.02 2.32,-20.55 6.96,-25.69 4.56,-5.05 10.69,-7.62 18.31,-7.62 5.88,0 10.77,1.58 14.75,4.64 3.98,3.07 6.95,8.12 9.1,15.33 2.07,7.21 4.31,12.09 6.55,14.66 4.72,5.06 13,10.11 24.94,15.25 11.93,5.22 25.02,7.79 39.27,7.79 22.12,0 40.26,-5.22 54.43,-15.58 9.03,-6.3 13.59,-14.09 13.59,-23.28 0,-6.22 -2.16,-12.02 -6.55,-17.4 -4.31,-5.47 -11.35,-9.94 -21.21,-13.51 -6.38,-2.4 -20.79,-5.71 -43.08,-9.94 -27.01,-5.05 -47.47,-11.1 -61.39,-18.23 -13.99,-7.12 -25.01,-17.15 -33.05,-30.15 -8.12,-12.93 -12.18,-26.93 -12.18,-42.01 0,-23.78 9.94,-44.66 29.74,-62.55 19.8,-17.9 45.56,-26.85 77.29,-26.85 12.68,0 24.53,1.41 35.38,4.31 10.86,2.82 20.72,7.21 29.58,13.09 6.55,-6.29 13.09,-9.44 19.64,-9.44 7.37,0 13.42,2.57 18.06,7.7 4.72,5.06 7.04,13.51 7.04,25.36l0 37.53c0,11.93 -2.32,20.54 -6.96,25.6 -4.56,5.14 -10.52,7.7 -17.81,7.7 -6.22,0 -11.52,-1.9 -16.08,-5.63 -3.56,-2.73 -6.21,-8.29 -8.03,-16.65 -1.74,-8.29 -4.06,-14.25 -6.8,-17.82 -4.64,-6.21 -11.68,-11.43 -21.04,-15.66 -9.28,-4.22 -20.13,-6.37 -32.31,-6.37 -17.9,0 -32.07,4.14 -42.42,12.51 -10.36,8.36 -15.58,17.06 -15.58,26.09 0,6.22 2.16,12.18 6.38,17.9 4.31,5.8 10.52,10.27 18.73,13.5 5.46,2.24 20.79,5.89 46.14,10.94 25.27,5.06 44.83,10.52 58.5,16.49 13.67,6.05 25.02,15.41 34.13,28.25 9.03,12.76 13.59,28.01 13.59,45.65 0,24.61 -8.62,44.25 -25.93,58.99 -22.95,19.47 -52.28,29.17 -87.83,29.17 -13.75,0 -27.17,-1.66 -40.18,-4.97 -13.01,-3.32 -25.68,-8.29 -37.94,-14.92zm395.28 -232.15l0 194.87 33.31 0c12.34,0 21.04,2.32 26.18,6.88 5.05,4.55 7.62,10.52 7.62,17.97 0,7.46 -2.57,13.43 -7.62,17.98 -5.14,4.56 -13.84,6.88 -26.18,6.88l-116.33 0c-12.34,0 -21.04,-2.32 -26.18,-6.96 -5.05,-4.64 -7.62,-10.69 -7.62,-18.14 0,-7.46 2.57,-13.43 7.62,-17.9 5.14,-4.47 13.84,-6.71 26.18,-6.71l33.31 0 0 -194.87 -54.18 0 0 47.23c0,12.34 -2.32,21.04 -6.88,26.18 -4.56,5.05 -10.52,7.62 -17.98,7.62 -7.46,0 -13.42,-2.57 -17.98,-7.62 -4.56,-5.14 -6.88,-13.84 -6.88,-26.18l0 -96.94 258 0 0 96.94c0,12.34 -2.32,21.04 -6.87,26.18 -4.56,5.05 -10.52,7.62 -17.98,7.62 -7.46,0 -13.42,-2.57 -17.98,-7.62 -4.56,-5.14 -6.88,-13.84 -6.88,-26.18l0 -47.23 -54.68 0zm222.79 121.79l0 73.08 126.76 0 0 -26.84c0,-12.35 2.32,-21.05 6.96,-26.19 4.64,-5.05 10.69,-7.62 18.15,-7.62 7.45,0 13.42,2.57 17.89,7.62 4.48,5.14 6.71,13.84 6.71,26.19l0 76.55 -234.13 0c-12.35,0 -21.05,-2.32 -26.19,-6.96 -5.05,-4.64 -7.62,-10.69 -7.62,-18.14 0,-7.46 2.57,-13.43 7.62,-17.9 5.14,-4.47 13.84,-6.71 26.19,-6.71l7.95 0 0 -194.87 -7.95 0c-12.35,0 -21.05,-2.32 -26.19,-6.87 -5.05,-4.56 -7.62,-10.53 -7.62,-17.98 0,-7.46 2.57,-13.43 7.62,-17.98 5.14,-4.56 13.84,-6.88 26.19,-6.88l223.7 0.25 0 75.31c0,12.35 -2.24,21.05 -6.72,26.18 -4.47,5.06 -10.43,7.63 -17.89,7.63 -7.46,0 -13.51,-2.57 -18.15,-7.63 -4.64,-5.13 -6.96,-13.83 -6.96,-26.18l0 -25.85 -116.32 0 0 72.08 43.75 0c0,-12.34 1.49,-20.13 4.55,-23.36 6.22,-6.96 13.09,-10.44 20.55,-10.44 7.46,0 13.42,2.57 17.9,7.62 4.47,5.14 6.71,13.84 6.71,26.18l0 49.71c0,12.35 -1.49,20.22 -4.48,23.53 -5.96,6.88 -12.67,10.28 -20.13,10.28 -7.46,0 -14.33,-3.48 -20.55,-10.44 -3.06,-3.23 -4.55,-11.02 -4.55,-23.37l-43.75 0zm271.51 -75.47l0 148.55 17.89 0c12.35,0 21.05,2.32 26.18,6.88 5.06,4.55 7.63,10.52 7.63,17.97 0,7.46 -2.57,13.43 -7.63,17.98 -5.13,4.56 -13.83,6.88 -26.18,6.88l-67.6 0c-12.35,0 -21.05,-2.32 -26.19,-6.96 -5.05,-4.64 -7.62,-10.69 -7.62,-18.14 0,-7.46 2.57,-13.43 7.62,-17.9 5.14,-4.47 13.84,-6.71 26.19,-6.71l0 -194.87c-12.35,0 -21.05,-2.32 -26.19,-6.87 -5.05,-4.56 -7.62,-10.53 -7.62,-17.98 0,-7.46 2.57,-13.43 7.62,-17.98 5.14,-4.56 13.84,-6.88 26.19,-6.88l61.39 0 68.1 149.63 66.95 -149.63 61.56 0c12.34,0 21.04,2.24 26.18,6.71 5.05,4.48 7.62,10.44 7.62,17.9 0,7.45 -2.57,13.5 -7.62,18.14 -5.14,4.64 -13.84,6.96 -26.18,6.96l0 194.87c12.34,0 21.04,2.32 26.18,6.88 5.05,4.55 7.62,10.52 7.62,17.97 0,7.46 -2.57,13.43 -7.62,17.98 -5.14,4.56 -13.84,6.88 -26.18,6.88l-68.11 0c-12.34,0 -21.04,-2.32 -26.18,-6.96 -5.05,-4.64 -7.62,-10.69 -7.62,-18.14 0,-7.46 2.57,-13.43 7.62,-17.9 5.14,-4.47 13.84,-6.71 26.18,-6.71l18.39 0 0 -148.55 -57.33 128.25 -42.83 0 -58.41 -128.25zm436.79 118.23l-120.38 0 -12.26 30.32 11.93 0c12.42,0 21.21,2.32 26.34,6.88 5.06,4.55 7.63,10.52 7.63,17.97 0,7.46 -2.57,13.43 -7.63,17.98 -5.13,4.56 -13.92,6.88 -26.34,6.88l-65.46 0c-12.34,0 -21.04,-2.32 -26.18,-6.96 -5.05,-4.64 -7.62,-10.69 -7.62,-18.14 0,-7.46 2.57,-13.43 7.62,-17.9 5.14,-4.47 13.84,-6.71 26.18,-6.71l78.55 -194.87 -32.31 0c-12.35,0 -21.05,-2.32 -26.19,-6.87 -5.05,-4.56 -7.62,-10.53 -7.62,-17.98 0,-7.46 2.57,-13.43 7.62,-17.98 5.14,-4.56 13.84,-6.88 26.19,-6.88l106.71 0 99.09 244.58c12.34,0 20.21,1.49 23.61,4.47 6.8,6.13 10.19,12.93 10.19,20.38 0,7.46 -2.57,13.43 -7.62,17.98 -5.14,4.56 -13.84,6.88 -26.18,6.88l-65.54 0c-12.42,0 -21.12,-2.32 -26.26,-6.96 -5.05,-4.64 -7.62,-10.69 -7.62,-18.14 0,-7.46 2.57,-13.43 7.62,-17.9 5.14,-4.47 13.84,-6.71 26.26,-6.71l11.93 0 -12.26 -30.32zm-20.13 -49.72l-40.02 -98.75 -40.02 98.75 80.04 0zm445.08 80.04l0 -194.87c-12.34,0 -21.04,-2.32 -26.18,-6.87 -5.05,-4.56 -7.62,-10.53 -7.62,-17.98 0,-7.46 2.57,-13.43 7.62,-17.98 5.14,-4.56 13.84,-6.88 26.18,-6.88l105.22 0.25c16.32,0 32.31,2.98 47.89,8.95 15.66,6.05 28.17,13.59 37.7,22.86 7.12,6.88 14.66,16.49 22.37,28.59 7.79,12.09 13.67,24.19 17.56,36.12 3.9,12.02 5.88,26.6 5.88,43.91l0 23.78c0,21.05 -3.56,39.69 -10.77,55.93 -7.2,16.32 -16.65,29.57 -28.33,39.85 -11.68,10.27 -22.7,17.81 -32.98,22.62 -16.32,7.62 -37.53,11.43 -63.54,11.43l-101 0c-12.34,0 -21.04,-2.32 -26.18,-6.96 -5.05,-4.64 -7.62,-10.69 -7.62,-18.14 0,-7.46 2.57,-13.43 7.62,-17.9 5.14,-4.47 13.84,-6.71 26.18,-6.71zm49.71 0l52.94 0c19.72,0 34.64,-2.82 44.66,-8.53 13.17,-7.46 23.03,-16.91 29.66,-28.42 6.63,-11.52 9.94,-26.35 9.94,-44.66l0 -23.61c0,-15.66 -2.98,-29.5 -8.94,-41.26 -9.45,-18.48 -19.97,-31.15 -31.74,-38.03 -11.76,-6.88 -26.43,-10.36 -44.07,-10.36l-52.45 0 0 194.87zm308.79 -73.08l0 73.08 126.76 0 0 -26.84c0,-12.35 2.32,-21.05 6.96,-26.19 4.64,-5.05 10.69,-7.62 18.15,-7.62 7.45,0 13.42,2.57 17.89,7.62 4.48,5.14 6.71,13.84 6.71,26.19l0 76.55 -234.13 0c-12.35,0 -21.05,-2.32 -26.19,-6.96 -5.05,-4.64 -7.62,-10.69 -7.62,-18.14 0,-7.46 2.57,-13.43 7.62,-17.9 5.14,-4.47 13.84,-6.71 26.19,-6.71l7.95 0 0 -194.87 -7.95 0c-12.35,0 -21.05,-2.32 -26.19,-6.87 -5.05,-4.56 -7.62,-10.53 -7.62,-17.98 0,-7.46 2.57,-13.43 7.62,-17.98 5.14,-4.56 13.84,-6.88 26.19,-6.88l223.7 0.25 0 75.31c0,12.35 -2.24,21.05 -6.72,26.18 -4.47,5.06 -10.43,7.63 -17.89,7.63 -7.46,0 -13.51,-2.57 -18.15,-7.63 -4.64,-5.13 -6.96,-13.83 -6.96,-26.18l0 -25.85 -116.32 0 0 72.08 43.75 0c0,-12.34 1.49,-20.13 4.55,-23.36 6.22,-6.96 13.09,-10.44 20.55,-10.44 7.46,0 13.42,2.57 17.9,7.62 4.47,5.14 6.71,13.84 6.71,26.18l0 49.71c0,12.35 -1.49,20.22 -4.48,23.53 -5.96,6.88 -12.67,10.28 -20.13,10.28 -7.46,0 -14.33,-3.48 -20.55,-10.44 -3.06,-3.23 -4.55,-11.02 -4.55,-23.37l-43.75 0zm647.64 50.21l72.17 -172 -11.44 0c-12.59,0 -21.37,-2.32 -26.51,-6.87 -5.05,-4.56 -7.62,-10.53 -7.62,-17.98 0,-7.46 2.57,-13.43 7.62,-17.98 5.14,-4.56 13.92,-6.88 26.51,-6.88l65.37 0c12.27,0 20.97,2.24 26.1,6.71 5.06,4.48 7.63,10.44 7.63,17.9 0,7.45 -3.48,14.25 -10.36,20.46 -3.32,3.07 -11.1,4.64 -23.37,4.64l-102.65 244.58 -47.06 0 -101.99 -244.58c-12.26,0 -20.05,-1.57 -23.36,-4.64 -6.88,-6.05 -10.36,-12.76 -10.36,-20.21 0,-7.46 2.57,-13.43 7.62,-17.98 5.14,-4.56 13.84,-6.88 26.1,-6.88l65.37 0c12.51,0 21.38,2.24 26.51,6.71 5.06,4.48 7.63,10.44 7.63,17.9 0,7.45 -2.57,13.5 -7.63,18.14 -5.13,4.64 -14,6.96 -26.51,6.96l-11.43 0 71.66 172zm438.29 -74.48c0,44.24 -14.08,81.03 -42.17,110.44 -28.17,29.41 -60.65,44.08 -97.6,44.08 -33.31,0 -63.22,-12.27 -89.98,-36.71 -33.05,-30.24 -49.62,-69.51 -49.62,-117.81 0,-48.22 16.57,-87.58 49.62,-117.98 26.76,-24.44 56.67,-36.71 89.98,-36.71 36.95,0 69.43,14.67 97.6,44.08 28.09,29.41 42.17,66.28 42.17,110.61zm-49.71 0c0,-30.24 -9.2,-55.35 -27.51,-75.23 -18.39,-19.8 -39.19,-29.74 -62.55,-29.74 -23.28,0 -43.99,9.94 -62.39,29.9 -18.31,19.89 -27.5,44.99 -27.5,75.07 0,30.16 9.19,55.18 27.5,75.06 18.4,19.8 39.11,29.75 62.39,29.75 23.36,0 44.16,-9.86 62.55,-29.67 18.31,-19.8 27.51,-44.82 27.51,-75.14zm232.73 -97.52l0 194.87 33.31 0c12.34,0 21.04,2.32 26.18,6.88 5.05,4.55 7.62,10.52 7.62,17.97 0,7.46 -2.57,13.43 -7.62,17.98 -5.14,4.56 -13.84,6.88 -26.18,6.88l-116.33 0c-12.34,0 -21.04,-2.32 -26.18,-6.96 -5.05,-4.64 -7.62,-10.69 -7.62,-18.14 0,-7.46 2.57,-13.43 7.62,-17.9 5.14,-4.47 13.84,-6.71 26.18,-6.71l33.31 0 0 -194.87 -54.18 0 0 47.23c0,12.34 -2.32,21.04 -6.88,26.18 -4.56,5.05 -10.52,7.62 -17.98,7.62 -7.46,0 -13.42,-2.57 -17.98,-7.62 -4.56,-5.14 -6.88,-13.84 -6.88,-26.18l0 -96.94 258 0 0 96.94c0,12.34 -2.32,21.04 -6.87,26.18 -4.56,5.05 -10.52,7.62 -17.98,7.62 -7.46,0 -13.42,-2.57 -17.98,-7.62 -4.56,-5.14 -6.88,-13.84 -6.88,-26.18l0 -47.23 -54.68 0zm334.39 164.55l-120.38 0 -12.26 30.32 11.93 0c12.42,0 21.21,2.32 26.34,6.88 5.06,4.55 7.63,10.52 7.63,17.97 0,7.46 -2.57,13.43 -7.63,17.98 -5.13,4.56 -13.92,6.88 -26.34,6.88l-65.46 0c-12.34,0 -21.04,-2.32 -26.18,-6.96 -5.05,-4.64 -7.62,-10.69 -7.62,-18.14 0,-7.46 2.57,-13.43 7.62,-17.9 5.14,-4.47 13.84,-6.71 26.18,-6.71l78.55 -194.87 -32.31 0c-12.35,0 -21.05,-2.32 -26.19,-6.87 -5.05,-4.56 -7.62,-10.53 -7.62,-17.98 0,-7.46 2.57,-13.43 7.62,-17.98 5.14,-4.56 13.84,-6.88 26.19,-6.88l106.71 0 99.09 244.58c12.34,0 20.21,1.49 23.61,4.47 6.8,6.13 10.19,12.93 10.19,20.38 0,7.46 -2.57,13.43 -7.62,17.98 -5.14,4.56 -13.84,6.88 -26.18,6.88l-65.54 0c-12.42,0 -21.12,-2.32 -26.26,-6.96 -5.05,-4.64 -7.62,-10.69 -7.62,-18.14 0,-7.46 2.57,-13.43 7.62,-17.9 5.14,-4.47 13.84,-6.71 26.26,-6.71l11.93 0 -12.26 -30.32zm-20.13 -49.72l-40.02 -98.75 -40.02 98.75 80.04 0zm335.63 -151.61c3.07,-4.31 6.46,-7.54 10.11,-9.7 3.65,-2.15 7.54,-3.23 11.76,-3.23 7.38,0 13.26,2.49 17.9,7.54 4.64,4.97 6.96,13.51 6.96,25.44l0 42.17c0,11.93 -2.32,20.46 -6.88,25.6 -4.64,5.05 -10.6,7.62 -17.81,7.62 -6.63,0 -12.01,-1.82 -16.07,-5.55 -3.98,-3.73 -7.04,-10.69 -8.95,-20.88 -1.16,-6.71 -3.4,-12.01 -6.79,-15.74 -6.63,-7.21 -15.91,-13.01 -27.76,-17.4 -11.85,-4.39 -23.78,-6.54 -35.79,-6.54 -14.83,0 -28.5,3.23 -40.93,9.69 -12.51,6.54 -23.45,17.07 -32.98,31.65 -9.52,14.58 -14.33,31.9 -14.33,52.03l0 32.31c0,23.95 8.7,44 26.1,60.07 17.4,15.99 41.51,24.03 72.41,24.03 18.48,0 34.05,-2.49 46.9,-7.54 7.45,-2.9 15.32,-8.7 23.77,-17.32 5.14,-5.22 9.2,-8.53 12.1,-10.11 2.9,-1.57 6.21,-2.32 9.94,-2.32 6.63,0 12.51,2.49 17.48,7.54 5.06,5.06 7.54,10.94 7.54,17.73 0,6.8 -3.39,14.09 -10.19,21.87 -9.86,11.36 -22.53,20.22 -38.11,26.77 -20.88,8.7 -43.91,13.09 -69.18,13.09 -29.41,0 -55.92,-6.05 -79.54,-18.23 -19.14,-9.69 -35.37,-25.02 -48.8,-45.98 -13.42,-21.05 -20.13,-43.91 -20.13,-68.69l0 -33.72c0,-25.93 6.05,-50.12 18.06,-72.49 12.02,-22.46 28.67,-39.77 50.04,-51.87 21.3,-12.18 43.92,-18.23 67.86,-18.23 14.33,0 27.76,1.66 40.27,5.06 12.59,3.31 24.19,8.45 35.04,15.33zm-82.52 328.09l0 -46.73c0,-6.13 1.58,-10.85 4.64,-14.08 3.07,-3.24 6.88,-4.81 11.44,-4.81 4.63,0 8.53,1.57 11.59,4.81 3.07,3.14 4.64,7.04 4.64,11.59l0 18.4c9.03,2.57 15.99,7.04 20.97,13.25 4.88,6.3 7.37,13.43 7.37,21.55 0,10.27 -3.98,19.13 -12.01,26.59 -7.96,7.46 -18.23,11.19 -30.66,11.19 -16.74,0 -31.57,-4.23 -44.32,-12.6 -5.64,-3.73 -8.46,-8.78 -8.46,-15.08 0,-4.39 1.58,-8.12 4.73,-11.35 3.15,-3.15 6.96,-4.72 11.35,-4.72 2.73,0 6.96,1.66 12.84,4.89 7.79,4.39 15.58,6.54 23.53,6.54 3.89,0 6.79,-0.66 8.78,-1.9 1.58,-1 2.4,-1.99 2.4,-2.9 0,-1 -0.66,-1.82 -1.98,-2.49 -2.74,-1.41 -6.96,-2.15 -12.68,-2.15l-14.17 0zm363.72 -126.76l-120.38 0 -12.26 30.32 11.93 0c12.42,0 21.21,2.32 26.34,6.88 5.06,4.55 7.63,10.52 7.63,17.97 0,7.46 -2.57,13.43 -7.63,17.98 -5.13,4.56 -13.92,6.88 -26.34,6.88l-65.46 0c-12.34,0 -21.04,-2.32 -26.18,-6.96 -5.05,-4.64 -7.62,-10.69 -7.62,-18.14 0,-7.46 2.57,-13.43 7.62,-17.9 5.14,-4.47 13.84,-6.71 26.18,-6.71l78.55 -194.87 -32.31 0c-12.35,0 -21.05,-2.32 -26.19,-6.87 -5.05,-4.56 -7.62,-10.53 -7.62,-17.98 0,-7.46 2.57,-13.43 7.62,-17.98 5.14,-4.56 13.84,-6.88 26.19,-6.88l106.71 0 99.09 244.58c12.34,0 20.21,1.49 23.61,4.47 6.8,6.13 10.19,12.93 10.19,20.38 0,7.46 -2.57,13.43 -7.62,17.98 -5.14,4.56 -13.84,6.88 -26.18,6.88l-65.54 0c-12.42,0 -21.12,-2.32 -26.26,-6.96 -5.05,-4.64 -7.62,-10.69 -7.62,-18.14 0,-7.46 2.57,-13.43 7.62,-17.9 5.14,-4.47 13.84,-6.71 26.26,-6.71l11.93 0 -12.26 -30.32zm-20.13 -49.72l-40.02 -98.75 -40.02 98.75 80.04 0zm7.37 -249.54c4.56,0 8.37,1.57 11.6,4.8 3.23,3.23 4.89,7.13 4.89,11.6 0,5.72 -5.88,13.17 -17.56,22.62 -11.77,9.44 -23.45,14.17 -35.05,14.17 -5.63,0 -11.27,-1.16 -16.82,-3.57 -5.63,-2.32 -16.4,-9.19 -32.39,-20.38 -6.63,-4.56 -11.19,-6.87 -13.59,-6.87 -3.56,0 -10.52,4.22 -20.88,12.75 -6.46,5.39 -11.77,8.12 -15.99,8.12 -4.23,0 -7.87,-1.57 -11.02,-4.72 -3.15,-3.15 -4.72,-6.96 -4.72,-11.52 0,-5.96 4.97,-12.84 14.83,-20.71 13.25,-10.85 25.52,-16.24 36.78,-16.24 5.22,0 10.03,0.91 14.59,2.65 6.96,2.99 16.07,8.37 27.42,16.33 11.27,7.87 18.72,11.84 22.29,11.84 4.22,0 10.35,-3.56 18.39,-10.77 5.22,-4.64 8.78,-7.54 10.77,-8.53 2.07,-1.08 4.23,-1.57 6.46,-1.57zm390.4 232.23c0,44.24 -14.08,81.03 -42.17,110.44 -28.17,29.41 -60.65,44.08 -97.6,44.08 -33.31,0 -63.22,-12.27 -89.98,-36.71 -33.05,-30.24 -49.62,-69.51 -49.62,-117.81 0,-48.22 16.57,-87.58 49.62,-117.98 26.76,-24.44 56.67,-36.71 89.98,-36.71 36.95,0 69.43,14.67 97.6,44.08 28.09,29.41 42.17,66.28 42.17,110.61zm-49.71 0c0,-30.24 -9.2,-55.35 -27.51,-75.23 -18.39,-19.8 -39.19,-29.74 -62.55,-29.74 -23.28,0 -43.99,9.94 -62.39,29.9 -18.31,19.89 -27.5,44.99 -27.5,75.07 0,30.16 9.19,55.18 27.5,75.06 18.4,19.8 39.11,29.75 62.39,29.75 23.36,0 44.16,-9.86 62.55,-29.67 18.31,-19.8 27.51,-44.82 27.51,-75.14z"/>
   <path class="fil0" d="M-4.93 33.74l594.12 0 0 260.58 -289.77 0 0 385.66 260.58 0 0 239.73 -260.58 0 0 629.56 -304.35 0 0 -1515.53zm1115.28 1544.71c-63.93,0 -129.25,-9.38 -195.96,-28.14 -66.7,-18.76 -126.46,-48.29 -179.27,-88.59l0 -1340.43c52.81,-40.3 112.57,-69.83 179.27,-88.6 66.71,-18.76 132.03,-28.14 195.96,-28.14 63.93,0 129.25,9.38 195.96,28.14 66.71,18.77 126.47,48.3 179.28,88.6l0 1340.43c-52.81,40.3 -112.57,69.83 -179.28,88.59 -66.71,18.76 -132.03,28.14 -195.96,28.14zm47.95 -214.71c15.28,0 22.93,-6.95 22.93,-20.85l0 -1102.77c0,-13.9 -7.65,-20.85 -22.93,-20.85l-95.9 0c-15.28,0 -22.93,6.95 -22.93,20.85l0 1102.77c0,13.9 7.65,20.85 22.93,20.85l95.9 0zm798.41 -637.9l116.74 0c13.9,0 20.85,-6.95 20.85,-20.85l0 -439.86c0,-19.45 -9.73,-29.18 -29.19,-29.18l-108.4 0 0 489.89zm137.59 252.24c0,-13.9 -6.95,-20.85 -20.85,-20.85l-116.74 0 0 592.04 -304.35 0 0 -1515.53 346.05 0c80.6,0 156.69,7.29 228.26,21.89 71.58,14.59 131.68,38.56 180.33,71.92l0 612.88c-13.9,18.07 -31.27,36.13 -52.12,54.2 -20.85,18.07 -42.39,34.74 -64.62,50.03 22.23,15.29 43.77,31.27 64.62,47.95 20.85,16.68 38.22,33.35 52.12,50.03l0 606.63 -312.7 0 0 -571.19zm771.32 -387.74c0,15.28 1.04,24.66 3.12,28.14 2.09,3.47 7.3,7.29 15.64,11.46l412.76 195.96c6.94,27.8 10.42,65.32 10.42,112.57l0 523.25c-52.81,40.3 -111.88,69.83 -177.2,88.59 -65.31,18.76 -129.94,28.14 -193.87,28.14 -63.93,0 -128.2,-9.38 -192.83,-28.14 -64.62,-18.76 -123.34,-48.29 -176.15,-88.59l0 -385.66 302.27 0 0 266.83c0,13.9 7.65,20.85 22.94,20.85l93.8 0c15.29,0 22.94,-6.95 22.94,-20.85l0 -321.03c0,-19.46 -1.05,-31.97 -3.13,-37.53 -2.09,-5.56 -10.77,-11.81 -26.06,-18.76l-404.42 -191.79c-2.78,-13.89 -4.86,-31.96 -6.25,-54.2 -1.39,-22.23 -2.09,-41.69 -2.09,-58.37l0 -539.92c52.81,-40.3 111.53,-69.83 176.15,-88.6 64.63,-18.76 128.9,-28.14 192.83,-28.14 63.93,0 128.56,9.38 193.87,28.14 65.32,18.77 124.39,48.3 177.2,88.6l0 396.08 -302.27 0 0 -277.25c0,-13.9 -7.65,-20.85 -22.93,-20.85l-93.81 0c-15.29,0 -22.93,6.95 -22.93,20.85l0 350.22zm602.46 -556.6l594.12 0 0 260.58 -289.77 0 0 385.66 260.58 0 0 239.73 -260.58 0 0 368.98 289.77 0 0 260.58 -594.12 0 0 -1515.53zm910.99 1515.53l0 -1232.02 -25.02 -22.93 -168.85 0 0 -260.58 700.43 0 0 260.58 -168.85 0 -25.02 22.93 0 1232.02 -312.69 0zm946.42 0l-306.44 0 0 -1515.53 306.44 0 0 1515.53z"/>
  </g>
 </g>
</svg>
